<svg t="1693044022985" class="icon" viewBox="0 0 1024 1024" version="1.1" xmlns="http://www.w3.org/2000/svg" p-id="5781" width="128" height="128"><path d="M398 306.3c-1 13.3 8.3 25.8 16.1 33.5 2.6 2.5 5.9 3.9 9.3 4.2 3.4 0.2 6.9-0.7 9.8-2.8 8.9-6.5 19.8-17.5 20.8-30.9 1-13.3-8.2-25.8-16.1-33.5-2.6-2.5-5.9-3.9-9.3-4.2-3.4-0.2-6.9 0.7-9.8 2.8-8.9 6.5-19.8 17.6-20.8 30.9z" fill="#F9970B" p-id="5782"></path><path d="M398 306.3c-1 13.3 8.3 25.8 16.1 33.5 2.6 2.5 5.9 3.9 9.3 4.2l5.1-71.4c-3.4-0.2-6.9 0.7-9.8 2.8-8.8 6.5-19.7 17.6-20.7 30.9z" fill="#F9C035" p-id="5783"></path><path d="M345.7 593.3c-4.4 12.6 1.3 27.1 7 36.6 1.8 3.1 4.7 5.3 7.9 6.4 3.2 1.1 6.8 1.1 10.2-0.2 10.3-4 23.6-11.9 28-24.5s-1.3-27.1-7-36.5c-1.9-3.1-4.7-5.3-7.9-6.4-3.2-1.1-6.8-1.1-10.2 0.2-10.3 3.9-23.6 11.8-28 24.4z" fill="#F9970B" p-id="5784"></path><path d="M345.7 593.3c-4.4 12.6 1.3 27.1 7 36.6 1.8 3.1 4.7 5.3 7.9 6.4l23.3-67.7c-3.2-1.1-6.8-1.1-10.2 0.2-10.3 4-23.6 11.9-28 24.5z" fill="#F9C035" p-id="5785"></path><path d="M511.5 374c7.7 11.6 5.8 27.7 2.6 38.7-1.1 3.6-3.3 6.6-6.3 8.6s-6.6 2.9-10.3 2.5c-11.4-1.3-27-5.8-34.7-17.4s-5.8-27.7-2.6-38.7c1.1-3.6 3.3-6.6 6.3-8.6s6.6-2.9 10.3-2.5c11.4 1.4 27 5.8 34.7 17.4z" fill="#F9970B" p-id="5786"></path><path d="M511.5 374c7.7 11.6 5.8 27.7 2.6 38.7-1.1 3.6-3.3 6.6-6.3 8.6l-41.3-62.2c3-2 6.6-2.9 10.3-2.5 11.4 1.4 27 5.8 34.7 17.4z" fill="#F9C035" p-id="5787"></path><path d="M696.5 521.4c1.4 13.3-7.5 26.1-15.1 34-2.5 2.6-5.8 4.1-9.2 4.5-3.4 0.3-6.9-0.5-9.9-2.5-9.1-6.2-20.3-17-21.7-30.3s7.5-26.1 15.1-34c2.5-2.6 5.8-4.1 9.2-4.5 3.4-0.3 6.9 0.5 9.9 2.5 9.1 6.3 20.3 17 21.7 30.3z" fill="#F9970B" p-id="5788"></path><path d="M696.5 521.4c1.4 13.3-7.5 26.1-15.1 34-2.5 2.6-5.8 4.1-9.2 4.5l-7.2-71.2c3.4-0.3 6.9 0.5 9.9 2.5 9 6.2 20.2 16.9 21.6 30.2z" fill="#F9C035" p-id="5789"></path><path d="M552 898.7h-80l4.6-112.1L479 727l0.8-18.2v-0.2l2.7-70v-0.1l4.9-125.4v-0.6l1-24.6v-0.3l0.1-2.2v-0.2l0.9-23.4 1.4-35.6 0.6-15.4 6-154 1-25 3.4-88c0.3-5.6 4.5-8.5 8.8-8.6 4.5-0.2 9.1 2.7 9.4 8.6l4.6 109 0.4 9.9 2.5 59.6 0.1 3.4v0.4l4.5 108.2v0.1l1.1 24.7 0.7 17.4v0.1l0.4 9.2 0.4 10.4v0.1l1 24.4 5.4 129.7 0.8 18.2v0.1l1.4 33.6 3.6 87.1 5.1 109.3z" fill="#B05C25" p-id="5790"></path><path d="M774.3 472.8L683.6 563l-25.7 25.5-114.5 113.9-5.3 5.2-9.5 9.5-18-20.1-1.9-2.2-9.2-10.3 11.1-9.1 17-13.9 13.7-11.2 17.3-14.1 0.1-0.1 7.5-6.1 0.1-0.1 20.3-16.6 181.1-148c7.7-6.3 13.9 0.6 6.6 7.5zM237.6 523.3l265.9 292.8 35.1-35.3-293-265.4c-8.4-8-15.8-0.5-8 7.9zM724.9 250.9L669 330.6l-0.9 1.3-132.3 188.9-1 1.5-12.6 18-11.6-9-0.6-0.5-21.1-16.5-0.5-0.4-1-0.8-0.3-0.2 0.5-0.5 0.9-1 0.1-0.1 22-25.7 0.1-0.1 4.3-5v-0.1l17.1-20 0.1-0.1 1-1.1 117.3-137 22.2-25.9 44.2-51.6c6.6-7.9 14-2.2 8 6.2zM333.9 239.8L501 478.4l28.9-22.5-189.4-221.2c-5.5-6.5-11.6-1.8-6.6 5.1zM587.2 130.8L528 321l-0.1 0.4-0.3 1.1-3 9.9-13.9-5-0.3-0.1-10.8-4 11.1-26.3 2.9-6.9 11.5-27.2 6.2-14.8 50.3-119.4c2.2-5.7 7.5-3.8 5.6 2.1zM421.1 145.3l100.1 112.1-14.7 11.9L417.8 148c-2.6-3.4 0.5-6 3.3-2.7z" fill="#B05C25" p-id="5791"></path><path d="M774.3 472.8L683.6 563l-25.7 25.5-114.5 113.9 3.6 87.1 5 109.2h-41.4V135.3c4.5-0.2 9.1 2.7 9.4 8.6l4.6 109 0.4 9.9 6.2-14.8 50.3-119.4c2.3-5.7 7.5-3.8 5.6 2.1L528 321l-0.1 0.4-0.3 1.1 0.1 3.4v0.4l4.5 108.2v0.1l1.1 24.7 117.3-137 22.2-25.9 44.2-51.6c6.5-7.9 13.9-2.2 7.9 6.2L669 330.6l-0.9 1.3-132.3 188.9 5.4 129.7 17.3-14.1 0.1-0.1 7.5-6.1 0.1-0.1 20.3-16.6 181.1-148c7.8-6.5 14 0.4 6.7 7.3z" fill="#8E4A1F" p-id="5792"></path><path d="M552 197.6s7.5-19 37.5-32.8 83.1-44.6 92.1-56.6c8.9-12-1.9 26.1-42.1 58.9S552 197.6 552 197.6z" fill="#90EB7A" p-id="5793"></path><path d="M713.4 257.5s7-16.3 33.4-27.5 73.3-36.6 81.4-46.8c8.1-10.2-2.3 22.6-38.1 50-35.7 27.4-76.7 24.3-76.7 24.3zM685.8 295.7s12.8-12.3 41.5-12.3c28.7-0.1 81.8-5.1 93.2-11.4 11.4-6.2-11 20-54.5 31.2-43.6 11.3-80.2-7.5-80.2-7.5zM644.7 337.4s14-10.9 42.5-8.1 81.9 3.2 93.9-1.9-12.9 18.7-57.4 25.6c-44.6 6.8-79-15.6-79-15.6z" fill="#00AD95" p-id="5794"></path><path d="M714.6 268.2c-5.5 7.8 17.5-72 40.8-99.2 23.2-27.2 30.3-24.6 30.3-24.6s-37.2 75.5-71.1 123.8zM699.3 288.5s12.7-12.4 13.7-41 7.9-81.6 14.5-92.8-20.3 10.3-33.1 53.5c-12.7 43.2 4.9 80.3 4.9 80.3zM673.6 327.9s6.9-16.4-3.3-43.1c-10.2-26.8-24.5-78.2-22.8-91.1 1.7-12.9-14.7 17.4-9.6 62.1s35.7 72.1 35.7 72.1z" fill="#00D16C" p-id="5795"></path><path d="M713.7 255.5c0 13.9-10.5 26.2-19.3 33.7-2.9 2.4-6.4 3.7-10 3.7-3.5 0-7.1-1.2-10-3.7-8.8-7.4-19.3-19.7-19.3-33.7 0-13.9 10.5-26.2 19.3-33.7 2.9-2.4 6.4-3.7 10-3.7 3.5 0 7.1 1.2 10 3.7 8.8 7.4 19.3 19.8 19.3 33.7z" fill="#F9970B" p-id="5796"></path><path d="M713.7 255.5c0 13.9-10.5 26.2-19.3 33.7-2.9 2.4-6.4 3.7-10 3.7v-74.6c3.5 0 7.1 1.2 10 3.7 8.8 7.2 19.3 19.6 19.3 33.5z" fill="#F9C035" p-id="5797"></path><path d="M657.1 312.9c3.1 13-4 26.8-10.6 35.7-2.1 2.9-5.2 4.8-8.5 5.6-3.3 0.8-6.9 0.4-10.1-1.2-9.8-5-22.4-14.2-25.4-27.2-3.1-13 4-26.8 10.6-35.7 2.2-2.9 5.2-4.8 8.5-5.6 3.3-0.8 6.9-0.4 10.1 1.2 9.8 5 22.3 14.2 25.4 27.2z" fill="#F9970B" p-id="5798"></path><path d="M657.1 312.9c3.1 13-4 26.8-10.6 35.7-2.1 2.9-5.2 4.8-8.5 5.6l-16.5-69.7c3.3-0.8 6.9-0.4 10.1 1.2 9.9 5 22.4 14.2 25.5 27.2z" fill="#F9C035" p-id="5799"></path><path d="M609.7 370.5c3.2 13.6-4.2 28-11 37.2-2.2 3-5.4 5-8.9 5.8-3.4 0.8-7.2 0.4-10.5-1.3-10.2-5.2-23.3-14.8-26.5-28.3-3.2-13.6 4.2-28 11-37.2 2.2-3 5.4-5 8.9-5.8s7.2-0.5 10.5 1.3c10.2 5.2 23.3 14.7 26.5 28.3z" fill="#F9970B" p-id="5800"></path><path d="M609.7 370.5c3.2 13.6-4.2 28-11 37.2-2.2 3-5.4 5-8.9 5.8l-17.2-72.6c3.5-0.8 7.2-0.5 10.5 1.3 10.3 5.2 23.4 14.7 26.6 28.3z" fill="#F9C035" p-id="5801"></path><path d="M698.3 293.6c-13.9 0-26.3 10.4-33.7 19.2-2.4 2.9-3.7 6.4-3.7 10 0 3.5 1.2 7.1 3.6 10 7.4 8.8 19.7 19.3 33.6 19.4 13.9 0 26.3-10.4 33.7-19.2 2.4-2.9 3.7-6.4 3.7-10 0-3.5-1.2-7.1-3.6-10-7.4-8.8-19.7-19.3-33.6-19.4z" fill="#F9970B" p-id="5802"></path><path d="M698.3 293.6c-13.9 0-26.3 10.4-33.7 19.2-2.4 2.9-3.7 6.4-3.7 10l74.6 0.2c0-3.5-1.2-7.1-3.6-10-7.4-8.8-19.7-19.3-33.6-19.4z" fill="#F9C035" p-id="5803"></path><path d="M664.4 354.6c-13-3.1-26.8 3.9-35.7 10.5-2.9 2.1-4.8 5.2-5.6 8.5s-0.4 6.9 1.2 10.1c5 9.8 14.1 22.4 27.1 25.5s26.8-3.9 35.7-10.5c2.9-2.1 4.8-5.2 5.6-8.5s0.5-6.9-1.2-10.1c-5-9.8-14.1-22.4-27.1-25.5z" fill="#F9970B" p-id="5804"></path><path d="M664.4 354.6c-13-3.1-26.8 3.9-35.7 10.5-2.9 2.1-4.8 5.2-5.6 8.5l69.6 16.7c0.8-3.3 0.5-6.9-1.2-10.1-5-9.9-14.1-22.5-27.1-25.6z" fill="#F9C035" p-id="5805"></path><path d="M620.4 411.5c-13-3.1-26.8 3.9-35.7 10.5-2.9 2.1-4.8 5.2-5.6 8.5s-0.4 6.9 1.2 10.1c5 9.8 14.1 22.4 27.1 25.5s26.8-3.9 35.7-10.5c2.9-2.1 4.8-5.2 5.6-8.5s0.5-6.9-1.2-10.1c-5-9.9-14.1-22.4-27.1-25.5z" fill="#F9970B" p-id="5806"></path><path d="M620.4 411.5c-13-3.1-26.8 3.9-35.7 10.5-2.9 2.1-4.8 5.2-5.6 8.5l69.6 16.7c0.8-3.3 0.5-6.9-1.2-10.1-5-10-14.1-22.5-27.1-25.6z" fill="#F9C035" p-id="5807"></path><path d="M349.5 248.9s-7-16.3-33.4-27.5-73.3-36.6-81.4-46.8c-8.1-10.2 2.3 22.6 38.1 50s76.7 24.3 76.7 24.3zM377.1 287.1s-12.8-12.3-41.5-12.3c-28.7-0.1-81.8-5.1-93.2-11.4-11.4-6.2 11 20 54.5 31.2 43.6 11.3 80.2-7.5 80.2-7.5zM418.2 328.8s-14-10.9-42.5-8.1c-28.5 2.9-81.9 3.2-93.9-1.9s12.9 18.7 57.4 25.6 79-15.6 79-15.6z" fill="#00D16C" p-id="5808"></path><path d="M348.3 259.6c5.5 7.8-17.5-72-40.8-99.2-23.2-27.2-30.3-24.6-30.3-24.6s37.2 75.5 71.1 123.8zM363.6 279.9s-12.7-12.4-13.7-41-7.9-81.6-14.5-92.8 20.3 10.3 33.1 53.5c12.6 43.2-4.9 80.3-4.9 80.3z" fill="#90EB7A" p-id="5809"></path><path d="M389.3 319.3s-6.9-16.4 3.3-43.1c10.2-26.8 24.5-78.2 22.8-91.1-1.7-12.9 14.7 17.4 9.6 62.1-5 44.8-35.7 72.1-35.7 72.1z" fill="#00D16C" p-id="5810"></path><path d="M349.2 246.9c0 13.9 10.5 26.2 19.3 33.7 2.9 2.4 6.4 3.7 10 3.7 3.5 0 7.1-1.2 10-3.7 8.8-7.4 19.3-19.7 19.3-33.7 0-13.9-10.5-26.2-19.3-33.7-2.9-2.4-6.4-3.7-10-3.7-3.5 0-7.1 1.2-10 3.7-8.8 7.5-19.3 19.8-19.3 33.7z" fill="#F9970B" p-id="5811"></path><path d="M349.2 246.9c0 13.9 10.5 26.2 19.3 33.7 2.9 2.4 6.4 3.7 10 3.7v-74.6c-3.5 0-7.1 1.2-10 3.7-8.8 7.3-19.3 19.6-19.3 33.5z" fill="#F9C035" p-id="5812"></path><path d="M364.6 285c13.9 0 26.3 10.4 33.7 19.2 2.4 2.9 3.7 6.4 3.7 10 0 3.5-1.2 7.1-3.6 10-7.4 8.8-19.7 19.3-33.6 19.4-13.9 0-26.3-10.4-33.7-19.2-2.4-2.9-3.7-6.4-3.7-10 0-3.5 1.2-7.1 3.6-10 7.4-8.8 19.7-19.3 33.6-19.4z" fill="#F9970B" p-id="5813"></path><path d="M364.6 285c13.9 0 26.3 10.4 33.7 19.2 2.4 2.9 3.7 6.4 3.7 10l-74.6 0.2c0-3.5 1.2-7.1 3.6-10 7.4-8.8 19.7-19.3 33.6-19.4z" fill="#F9C035" p-id="5814"></path><path d="M398.5 346c13-3.1 26.8 3.9 35.7 10.5 2.9 2.1 4.8 5.2 5.6 8.5 0.8 3.3 0.4 6.9-1.2 10.1-5 9.8-14.1 22.4-27.1 25.5s-26.8-3.9-35.7-10.5c-2.9-2.1-4.8-5.2-5.6-8.5-0.8-3.3-0.5-6.9 1.2-10.1 5-9.8 14.1-22.4 27.1-25.5z" fill="#F9970B" p-id="5815"></path><path d="M398.5 346c13-3.1 26.8 3.9 35.7 10.5 2.9 2.1 4.8 5.2 5.6 8.5l-69.6 16.7c-0.8-3.3-0.5-6.9 1.2-10.1 5-9.9 14.1-22.5 27.1-25.6z" fill="#F9C035" p-id="5816"></path><path d="M253.8 535.1s-15.5-8.6-24.2-35.9-29.3-76.5-38.7-85.6c-9.4-9 22.3 4.5 46.1 42.7s16.8 78.8 16.8 78.8zM289.1 566.2s-11-13.9-8.3-42.5c2.7-28.5 2.8-81.9-2.3-93.9s18.8 12.8 25.8 57.3-15.2 79.1-15.2 79.1z" fill="#90EB7A" p-id="5817"></path><path d="M326.6 611.2s-9.5-15-3.9-43.1 11.1-81.2 7.2-93.6 17.4 14.7 19.9 59.6c2.5 45-23.2 77.1-23.2 77.1zM264.6 535c7.2 6.2-70-24.4-94.8-50.1s-21.6-32.5-21.6-32.5 71.6 44.1 116.4 82.6zM283.3 552.1s-11.1-13.8-39.5-17.6-80.4-15.7-90.9-23.4c-10.5-7.7 8.3 21.2 50 38.1s80.4 2.9 80.4 2.9z" fill="#00D16C" p-id="5818"></path><path d="M320 581.6s-15.6-8.4-43.3-0.8c-27.6 7.6-80.2 16.8-92.9 13.9-12.7-3 15.9 16.3 60.9 15.6 45.1-0.9 75.3-28.7 75.3-28.7z" fill="#00D16C" p-id="5819"></path><path d="M251.8 534.6c13.9 1.3 25.1 13 31.6 22.4 2.1 3.1 3 6.7 2.7 10.3-0.3 3.5-1.9 6.9-4.6 9.6-8.2 8-21.5 17.3-35.4 15.9-13.9-1.3-25.1-13-31.6-22.4-2.1-3.1-3-6.7-2.7-10.3 0.3-3.5 1.9-6.9 4.6-9.6 8.3-8 21.5-17.2 35.4-15.9z" fill="#F9970B" p-id="5820"></path><path d="M251.8 534.6c13.9 1.3 25.1 13 31.6 22.4 2.1 3.1 3 6.7 2.7 10.3l-74.3-7.2c0.3-3.5 1.9-6.9 4.6-9.6 8.3-8 21.5-17.2 35.4-15.9z" fill="#F9C035" p-id="5821"></path><path d="M303.5 596.5c13.2-1.8 26.3 6.6 34.5 14 2.7 2.4 4.3 5.6 4.8 9s-0.2 6.9-2.2 9.9c-5.9 9.3-16.2 20.9-29.5 22.7-13.2 1.8-26.3-6.6-34.5-14-2.7-2.4-4.3-5.6-4.8-9s0.2-6.9 2.2-9.9c5.9-9.3 16.2-20.9 29.5-22.7z" fill="#F9970B" p-id="5822"></path><path d="M303.5 596.5c13.2-1.8 26.3 6.6 34.5 14 2.7 2.4 4.3 5.6 4.8 9l-70.9 9.7c-0.5-3.4 0.2-6.9 2.2-9.9 5.8-9.4 16.1-21 29.4-22.8z" fill="#F9C035" p-id="5823"></path><path d="M356.2 649.2c13.8-1.9 27.4 6.9 36 14.6 2.8 2.5 4.5 5.9 5 9.4s-0.3 7.2-2.3 10.4c-6.2 9.7-16.9 21.8-30.7 23.7-13.8 1.9-27.4-6.9-35.9-14.6-2.8-2.5-4.5-5.9-5-9.4s0.2-7.2 2.3-10.4c6-9.7 16.8-21.8 30.6-23.7z" fill="#F9970B" p-id="5824"></path><path d="M356.2 649.2c13.8-1.9 27.4 6.9 36 14.6 2.8 2.5 4.5 5.9 5 9.4l-73.9 10.1c-0.5-3.5 0.2-7.2 2.3-10.4 6-9.7 16.8-21.8 30.6-23.7z" fill="#F9C035" p-id="5825"></path><path d="M288.3 553.7c-1.4 13.9 7.9 27.2 15.8 35.4 2.6 2.7 6 4.3 9.6 4.6 3.5 0.4 7.2-0.5 10.3-2.6 9.5-6.5 21.1-17.7 22.5-31.6 1.4-13.9-7.8-27.2-15.8-35.4-2.6-2.7-6-4.3-9.6-4.6-3.5-0.4-7.2 0.5-10.3 2.6-9.5 6.5-21.1 17.7-22.5 31.6z" fill="#F9970B" p-id="5826"></path><path d="M288.3 553.7c-1.4 13.9 7.9 27.2 15.8 35.4 2.6 2.7 6 4.3 9.6 4.6l7.4-74.2c-3.5-0.4-7.2 0.5-10.3 2.6-9.5 6.5-21.1 17.7-22.5 31.6z" fill="#F9C035" p-id="5827"></path><path d="M398.1 642.6c-4.4 12.6 1.3 27.1 7 36.6 1.8 3.1 4.7 5.3 7.9 6.4 3.2 1.1 6.8 1.1 10.2-0.2 10.3-4 23.6-11.9 28-24.5s-1.3-27.1-7-36.5c-1.9-3.1-4.7-5.3-7.9-6.4-3.2-1.1-6.8-1.1-10.2 0.2-10.3 3.8-23.7 11.7-28 24.4z" fill="#F9970B" p-id="5828"></path><path d="M398.1 642.6c-4.4 12.6 1.3 27.1 7 36.6 1.8 3.1 4.7 5.3 7.9 6.4l23.3-67.7c-3.2-1.1-6.8-1.1-10.2 0.2-10.3 3.9-23.7 11.8-28 24.5z" fill="#F9C035" p-id="5829"></path><path d="M759.5 473.9s9.1-15.2 36.7-22.9c27.6-7.7 77.5-26.7 86.8-35.7s-5.3 22.1-44.3 44.6-79.2 14-79.2 14zM727.2 508.2s14.3-10.5 42.7-6.8 81.8 5.6 93.9 0.9c12.1-4.7-13.5 18.4-58.2 23.9-44.6 5.4-78.4-18-78.4-18zM681 544.1s15.3-9 43.2-2.4 80.8 13.8 93.3 10.4c12.5-3.5-15.3 16.9-60.3 17.8-45 0.9-76.2-25.8-76.2-25.8z" fill="#00AD95" p-id="5830"></path><path d="M759.3 484.7c-6.4 7 26.8-69.1 53.4-93s33.3-20.4 33.3-20.4-46.7 69.9-86.7 113.4zM741.5 502.8s14.2-10.6 19-38.9c4.7-28.3 18.5-79.8 26.5-90.1s-21.5 7.5-39.8 48.7-5.7 80.3-5.7 80.3zM710.8 538.5s9-15.3 2.3-43.2c-6.6-27.9-14.1-80.7-10.7-93.3s-16.8 15.3-17.7 60.3 26.1 76.2 26.1 76.2z" fill="#00D16C" p-id="5831"></path><path d="M760.1 471.9c-1.8 13.8-13.8 24.6-23.5 30.9-3.2 2-6.8 2.8-10.4 2.3-3.5-0.5-6.9-2.1-9.4-4.9-7.7-8.5-16.5-22.1-14.7-35.9s13.8-24.6 23.5-30.8c3.2-2 6.8-2.8 10.4-2.3 3.5 0.5 6.9 2.1 9.4 4.9 7.7 8.4 16.5 22 14.7 35.8z" fill="#F9970B" p-id="5832"></path><path d="M760.1 471.9c-1.8 13.8-13.8 24.6-23.5 30.9-3.2 2-6.8 2.8-10.4 2.3l9.7-74c3.5 0.5 6.9 2.1 9.4 4.9 7.8 8.5 16.6 22.1 14.8 35.9z" fill="#F9C035" p-id="5833"></path><path d="M642 572.3c1.4 13.9-7.8 27.2-15.8 35.4-2.6 2.7-6 4.3-9.5 4.6-3.5 0.4-7.2-0.5-10.3-2.6-9.5-6.5-21.2-17.7-22.6-31.5-1.4-13.9 7.8-27.2 15.8-35.4 2.6-2.7 6-4.3 9.5-4.6 3.5-0.4 7.2 0.5 10.3 2.6 9.5 6.5 21.2 17.7 22.6 31.5z" fill="#F9970B" p-id="5834"></path><path d="M642 572.3c1.4 13.9-7.8 27.2-15.8 35.4-2.6 2.7-6 4.3-9.5 4.6l-7.5-74.2c3.5-0.4 7.2 0.5 10.3 2.6 9.4 6.6 21.1 17.8 22.5 31.6z" fill="#F9C035" p-id="5835"></path><path d="M739.8 507.7c-13.8-1.9-27.4 6.9-35.9 14.6-2.8 2.5-4.5 5.9-4.9 9.4-0.5 3.5 0.3 7.2 2.3 10.4 6.2 9.7 17 21.7 30.8 23.6 13.8 1.9 27.4-6.9 35.9-14.6 2.8-2.5 4.5-5.9 4.9-9.4 0.5-3.5-0.3-7.2-2.3-10.4-6.2-9.7-17-21.7-30.8-23.6z" fill="#F9970B" p-id="5836"></path><path d="M739.8 507.7c-13.8-1.9-27.4 6.9-35.9 14.6-2.8 2.5-4.5 5.9-4.9 9.4l73.9 10c0.5-3.5-0.3-7.2-2.3-10.4-6.2-9.7-17-21.7-30.8-23.6z" fill="#F9C035" p-id="5837"></path><path d="M698.2 563.8c-12.5-4.8-27.1 0.4-36.8 5.7-3.2 1.7-5.5 4.5-6.7 7.7s-1.3 6.8-0.2 10.2c3.6 10.4 11 24 23.5 28.8s27.1-0.4 36.8-5.7c3.2-1.7 5.5-4.5 6.7-7.7s1.3-6.8 0.2-10.2c-3.6-10.4-11-24.1-23.5-28.8z" fill="#F9970B" p-id="5838"></path><path d="M698.2 563.8c-12.5-4.8-27.1 0.4-36.8 5.7-3.2 1.7-5.5 4.5-6.7 7.7l66.8 25.6c1.2-3.2 1.3-6.8 0.2-10.2-3.6-10.4-11-24.1-23.5-28.8z" fill="#F9C035" p-id="5839"></path><path d="M647.2 614.4c-12.5-4.8-27.1 0.4-36.8 5.7-3.2 1.7-5.5 4.5-6.7 7.7s-1.3 6.8-0.2 10.2c3.6 10.4 11 24 23.5 28.8s27.1-0.4 36.8-5.7c3.2-1.7 5.5-4.5 6.7-7.7s1.3-6.8 0.2-10.2c-3.6-10.4-11-24-23.5-28.8z" fill="#F9970B" p-id="5840"></path><path d="M647.2 614.4c-12.5-4.8-27.1 0.4-36.8 5.7-3.2 1.7-5.5 4.5-6.7 7.7l66.8 25.6c1.2-3.2 1.3-6.8 0.2-10.2-3.6-10.4-11-24-23.5-28.8z" fill="#F9C035" p-id="5841"></path><path d="M478.3 221.4s1.7-20.4-19-46-54.6-76.9-57.3-91.6-9.9 24.3 11.5 71.4 64.8 66.2 64.8 66.2z" fill="#90EB7A" p-id="5842"></path><path d="M503.5 264.8c11.5 7.8 15.9 23.4 17.1 34.8 0.4 3.7-0.6 7.4-2.6 10.3s-5 5.2-8.6 6.2c-11.1 3.1-27.1 4.9-38.7-2.9-11.5-7.8-15.9-23.4-17.1-34.8-0.4-3.8 0.6-7.4 2.6-10.3s5-5.2 8.6-6.2c11-3.1 27.1-4.9 38.7 2.9z" fill="#F9970B" p-id="5843"></path><path d="M503.5 264.8c11.5 7.8 15.9 23.4 17.1 34.8 0.4 3.7-0.6 7.4-2.6 10.3l-61.8-41.8c2-2.9 5-5.2 8.6-6.2 11-3.1 27.1-4.9 38.7 2.9z" fill="#F9C035" p-id="5844"></path><path d="M505.7 320.2c-7.8 11.5-6.1 27.6-3 38.7 1 3.6 3.3 6.6 6.2 8.6 2.9 2 6.5 3 10.3 2.6 11.4-1.2 27-5.5 34.9-17 7.8-11.5 6.1-27.6 3-38.7-1-3.6-3.3-6.6-6.2-8.6s-6.5-3-10.3-2.6c-11.4 1.2-27 5.4-34.9 17z" fill="#F9970B" p-id="5845"></path><path d="M505.7 320.2c-7.8 11.5-6.1 27.6-3 38.7 1 3.6 3.3 6.6 6.2 8.6l41.9-61.7c-2.9-2-6.5-3-10.3-2.6-11.3 1.2-26.9 5.4-34.8 17z" fill="#F9C035" p-id="5846"></path><path d="M250.4 900c-8.3 0-15.9-3.4-21.4-8.9s-8.9-13-8.9-21.4v-92.9c0-16.7 13.5-30.2 30.2-30.2 8.3 0 15.9 3.4 21.4 8.9s8.9 13 8.9 21.4v92.9c0.1 16.6-13.5 30.2-30.2 30.2z" fill="#90EB7A" p-id="5847"></path><path d="M740.8 900c-8.3 0-15.9-3.4-21.4-8.9s-8.9-13-8.9-21.4v-92.9c0-16.7 13.5-30.2 30.2-30.2 8.3 0 15.9 3.4 21.4 8.9s8.9 13 8.9 21.4v92.9c0 16.6-13.5 30.2-30.2 30.2z" fill="#008486" p-id="5848"></path><path d="M356.2 900c-8.3 0-15.9-3.4-21.4-8.9s-8.9-13-8.9-21.4v-58.6c0-16.7 13.5-30.2 30.2-30.2 8.3 0 15.9 3.4 21.4 8.9s8.9 13 8.9 21.4v58.7c0 16.5-13.5 30.1-30.2 30.1z" fill="#00AD95" p-id="5849"></path><path d="M932 899.9c0 8.3-3.4 15.9-8.9 21.4s-13 8.9-21.4 8.9H122.2c-16.7 0-30.2-13.5-30.2-30.2 0-8.3 3.4-15.9 8.9-21.4s13-8.9 21.4-8.9h779.5c16.7 0 30.2 13.5 30.2 30.2z" fill="#00D16C" p-id="5850"></path><path d="M932 899.9c0 8.3-3.4 15.9-8.9 21.4s-13 8.9-21.4 8.9H510.6v-60.5h391.2c16.7 0 30.2 13.5 30.2 30.2z" fill="#00AD95" p-id="5851"></path><path d="M721 503.5c-1.6-0.8-3-1.9-4.2-3.3-1.2-1.3-2.4-2.7-3.5-4.2 1 4.4 1.7 8.4 2 12.2l5.7-4.7zM699 287.9l-0.3 0.5c0.2-0.1 0.3-0.1 0.5-0.2-0.1-0.1-0.1-0.2-0.2-0.3zM677.2 291.1c-1-0.5-1.9-1.1-2.8-1.9-1.2-1-2.5-2.1-3.7-3.3 1.2 3.3 2.2 6.4 2.9 9.4l3.6-4.2zM382.5 283.8l5.9 6.9c0.8-4.1 2-8.6 3.8-13.4-1.2 1.2-2.5 2.3-3.7 3.3-1.8 1.5-3.9 2.6-6 3.2zM281.5 576.9c-1.3 1.2-2.6 2.5-4.1 3.7 3.7-1 7.1-1.7 10.3-2.1l-4-4.4c-0.6 1-1.3 1.9-2.2 2.8z" fill="#005E5E" p-id="5852"></path><path d="M927.9 876.2l-2.4-2.4c-2.1-1.9-4.4-3.5-6.9-4.9-0.5-0.3-1-0.5-1.5-0.8-1-0.5-2.1-0.9-3.2-1.3-0.6-0.2-1.3-0.4-2.1-0.7-3.2-1-6.6-1.4-10-1.4H776v-87.8c0-9.4-3.7-18.3-10.4-24.9-6.7-6.7-15.5-10.4-24.9-10.4-19.4 0-35.2 15.8-35.2 35.2v87.9H560.4v-0.5L557 789l-3.4-82.7 48.6-48.4c4.9 7.4 11.7 14.5 21.2 18.1 4.4 1.7 9.3 2.6 14.4 2.6 12.1 0 23.4-4.8 30.8-8.8 5.2-2.8 9.2-7.4 11.3-13 2-5.3 2.1-11.3 0.4-16.8 0-0.1 0-0.1-0.1-0.2-1.4-4.1-3.6-9.5-6.9-14.9 0.4 0.2 0.8 0.3 1.2 0.5 4.4 1.7 9.3 2.6 14.4 2.6 12.1 0 23.4-4.8 30.8-8.8 5.2-2.8 9.2-7.4 11.3-13 2-5.3 2.1-11.3 0.4-16.8 0-0.1 0-0.1-0.1-0.2-1.3-3.6-3.1-8.3-5.8-13 9 2.2 19 3.6 29.7 3.6h2.4c21.6-0.4 38.6-5 49-8.8 5.6-2 10.6-4.3 14.5-6.6 3.1-1.8 9.6-5.6 9.6-12.5-0.1-5.8-4.8-10.3-10.8-10.3-1.5 0-3 0.2-4.9 0.8-0.4 0.1-2.3 0.5-7.4 0.5-6.1 0-14.6-0.6-24.5-1.7 0.1-1.6 0.1-3.1-0.1-4.7 3.1 0.2 6.2 0.3 9.3 0.3 4.9 0 9.8-0.3 14.7-0.9 21.5-2.6 37.8-8.9 47.8-13.7 5.4-2.6 10.1-5.3 13.8-8 4.6-3.3 8.7-7.1 8.4-13-0.3-5.6-4.9-9.8-10.6-9.8-1.8 0-3.7 0.4-6 1.3-0.6 0.2-6.1 2.1-28.6 2.1-19.6 0-43.9-1.4-60.4-3.6-0.4-0.1-0.9-0.1-1.3-0.2l5.9-5.9h2.8c16.3 0 40.9-2.9 65.1-16.9 18.5-10.7 31.1-22.7 38.3-30.8 15.6-17.6 14-23.9 13.3-26.3-1.2-4.5-5.3-7.7-10-7.7-4.2 0-7.2 2.4-9.3 4.4-1.9 1.8-11.1 7.3-33.3 16.2-9.8 3.9-20.4 7.8-30.3 11.1 23.3-31 41.6-58.3 41.8-58.6 1.6-2.4 2.1-5.3 1.4-8-0.7-2.8-2.5-5.1-5.1-6.4-1.7-0.9-3.6-1.3-5.8-1.3-8.8 0-21.5 7.6-38.8 23.1-8.1 7.3-16.4 18.4-23.7 30 6.5-22.6 11-32.2 12.6-34.4 3.6-4.6 4.4-9.1 2.4-13.2-1.8-3.6-5.4-5.8-9.4-5.8-3.5 0-7 1.6-11.9 5.5-3.6 2.8-7.6 6.7-11.6 11-7.3 8-17.8 21.7-26.3 41l-1.2 2.7h-3c-4.8 0-9.5 1.4-13.6 4 0 0-0.1 0-0.1 0.1-2.3 1.5-4.9 3.3-7.5 5.4-1.4-14.1-1.4-23-0.6-25.9 0.5-2 1.9-7.1-1.5-11.6-1.8-2.4-4.6-3.8-7.5-4 0.1-0.9 0.1-1.8 0.1-2.7-0.1-3.8-1-7.5-2.7-10.8-1.7-3.4-4.2-7.7-7.5-12 4.4 0.5 9 0.8 13.7 0.8 6.2 0 12.5-0.5 18.5-1.4 21.3-3.3 37.5-10.1 47.3-15.1 5.3-2.7 10-5.6 13.6-8.4 4.4-3.4 8.5-7.3 8-13.1-0.4-5.5-4.9-9.6-10.5-9.6-1.9 0-3.9 0.5-6.4 1.5-2.4 1-11.6 2.6-31.7 3-0.1-1.6-0.4-3.1-0.8-4.6 8.1-0.5 16.1-1.7 23.8-3.7 20.8-5.4 36.2-13.6 45.4-19.7 5-3.2 9.3-6.6 12.7-9.7 3.9-3.7 7.5-7.9 6.8-13.4-0.7-5.3-5-9.1-10.4-9.1-2.3 0-4.5 0.7-7.2 2.2h-0.1c-2.3 1.3-12.6 4.2-36.4 6.8-17.8 2-37.7 3.3-52 3.3-1.4 0-2.8 0-4.2 0.1 1.5-2.1 2.9-4.2 4.3-6.3 16.6-1.4 43.8-6.9 68.7-26 16.9-12.9 27.8-26.4 33.9-35.4 3.3-4.9 6.1-9.6 8-13.8 2.7-6 3.4-9.9 2.2-13.5-1.4-4.2-5.4-7.1-9.8-7.1-5.5 0-8.8 4.1-10 5.7-1.7 2.1-10.1 8.8-30.9 20.5-9.3 5.2-19.3 10.5-28.7 15.1 19.1-33.8 33.7-63.4 33.9-63.7 1.3-2.5 1.4-5.5 0.3-8.1-1.1-2.6-3.2-4.7-5.8-5.7-1.2-0.4-2.6-0.7-4-0.7-8.9 0-21.1 9.2-37.3 28.2-7.2 8.4-13.9 20.5-19.7 32.9 3.4-23.2 6.6-33.3 8-35.6 4.2-7.2 1.8-11.4 1-12.8-1.8-3.2-5.3-5.2-9-5.2h-0.1c-2.5 0-9 0.2-22.2 19.2-6.3 9-15 24-21 44.4-0.3 0.9-0.5 1.8-0.8 2.7-5.8 0.1-11.4 2.2-16 6l-0.1 0.1c-2 1.7-4.3 3.8-6.5 6.2-3.2-13.7-4.3-22.4-3.9-25.4 0.2-1.9 0.9-6.8-2.5-10.8-2-2.2-4.8-3.5-7.8-3.5-1.8 0-5.2 0.5-8.2 3.8-5.3 5.9-8.5 21-9.4 25.5-2 10.3-3.9 26.8-1.6 46.9 0.7 6.3 1.9 12.4 3.5 18-1.9-0.5-3.9-0.8-5.8-0.8h-0.7c-1.9 0-3.9 0.2-5.7 0.7-0.3 0.1-0.7 0.2-1 0.3-5.2 1.5-9.7 4.6-13 9 0 0 0 0.1-0.1 0.1-6.4 8.7-16.6 25.9-12.3 43.9 0.9 3.7 2.3 7.3 4.4 10.8-3.4-2.3-6.6-4.2-9.3-5.5-3.4-1.8-7.1-2.8-11-2.9h-0.7c-1.9 0-3.9 0.2-5.8 0.7-0.2 0.1-0.4 0.1-0.7 0.2-0.1-7.7-1.6-14.7-3-19.6-1.6-5.7-5.2-10.7-10.2-14.1-2.9-2-6.1-3.4-9.6-4l27.3-87.6c17.8-2.8 46.1-10.3 71.5-31.1 18.8-15.3 30.7-31.1 37.4-41.6 3.6-5.6 6.6-11.2 8.6-15.9 2.8-6.6 3.4-10.8 2.1-14.4-1.5-4.2-5.4-7-9.8-7-5.8 0-9.2 4.5-10.5 6.3-6.3 8.4-50.3 35.3-82.9 51l6-19.4c1.7-5.3 0.9-10.5-2.2-14.1-2.3-2.8-5.7-4.5-9.4-4.5-5.5 0-10.5 3.7-12.9 9.6l-27.1 64.4c-1.5 2.6-2.2 4.3-2.4 4.8-0.3 0.8-0.5 1.7-0.6 2.6l-8.9 21.2-3.1-74.3v-0.1c-0.5-10.3-8.7-18.1-19-18.1h-0.8c-10.1 0.3-17.9 7.9-18.4 18.1v0.1l-2.4 63.3-4.1-4.6c-3.5-11.3-9.6-22.4-18.2-33.1-10.2-12.6-23.5-31.4-34.7-49-14-21.9-19.8-34.2-20.5-38.1-1.9-10.2-8.5-11.3-11.2-11.3-3.6 0-6.9 1.9-8.9 5-4.4 6.8-3 23.9-2.2 31 1.4 12.2 5.1 31.2 14.9 52.7 2.2 4.8 4.6 9.4 7.2 13.7-1.3 0.6-2.6 1.5-3.6 2.6-3.4 3.9-2.8 8.9-2.5 10.8 0.4 3-0.8 11.7-3.9 25.4-2.3-2.4-4.5-4.4-6.5-6.2l-0.1-0.1c-4.6-3.8-10.3-5.9-16-6-0.2-0.9-0.5-1.8-0.8-2.7-6.1-20.5-14.8-35.5-21.1-44.5-13.3-19.2-19.8-19.2-22.3-19.2-3.7 0-7.2 2-9 5.2-3.2 5.6 0 11 1 12.8 1.3 2.3 4.5 12.4 8 35.7-5.8-12.4-12.5-24.6-19.7-33-16.2-18.9-28.4-28.2-37.3-28.2-1.4 0-2.8 0.2-4 0.7-2.7 1-4.8 3-5.8 5.7-1.1 2.6-0.9 5.6 0.3 8.1 0.2 0.4 14.8 30 33.9 63.7-9.3-4.6-19.4-9.8-28.7-15.1-20.8-11.7-29.2-18.4-30.9-20.5-1.2-1.6-4.5-5.7-10-5.7-4.4 0-8.4 2.8-9.8 7.1-1.2 3.6-0.6 7.5 2.2 13.5 1.9 4.2 4.7 8.9 8 13.8 6.1 9 17 22.5 33.9 35.4 24.8 18.9 51.7 24.5 68.1 25.9l4.5 6.4c-1.2 0-2.4-0.1-3.6-0.1-14.3 0-34.2-1.3-52-3.3-23.8-2.7-34.1-5.6-36.4-6.8h-0.1c-2.7-1.5-5-2.2-7.2-2.2-5.4 0-9.7 3.8-10.4 9.1-0.7 5.5 2.9 9.7 6.8 13.4 3.3 3.1 7.7 6.5 12.7 9.7 9.2 6 24.6 14.3 45.4 19.7 7.7 2 15.7 3.2 23.8 3.7-0.4 1.5-0.6 3.1-0.8 4.7-20.1-0.4-29.4-2.1-31.7-3.1-2.5-1-4.4-1.5-6.4-1.5-5.6 0-10.1 4.1-10.5 9.6-0.4 5.8 3.6 9.7 8 13.1 3.6 2.8 8.3 5.7 13.6 8.4 9.8 5.1 26 11.8 47.3 15.1 6.1 1 12.4 1.4 18.7 1.4 4.7 0 9.3-0.3 13.6-0.7-3.3 4.3-5.7 8.6-7.4 11.9-1.7 3.3-2.7 7-2.7 10.8 0 2.1 0.2 4.2 0.7 6.3 0.1 0.4 0.2 0.7 0.3 1 1.5 5.3 4.7 9.9 9.1 13.1 6.7 4.9 20.1 13.2 35 13.2 3.1 0 6.1-0.3 8.9-1 7-1.7 13.6-5.4 19.5-11.1l45.9 65.6-0.8 20v0.4l-0.1 2v0.6l-0.9 22.4c-0.3 1.2-0.5 2.5-0.3 3.7 0 0.4 0.1 0.7 0.2 1.1L473.3 638v0.3l-2.6 66.7-23.7-21.4c6-4.8 11.5-11.2 14.4-19.5 2.6-7.6 2.8-16 0.5-25.2-2.1-8.3-5.7-15.3-8.4-19.8-2.8-4.5-6.8-8-11.6-10-0.5-0.3-1.1-0.5-1.6-0.7-2.6-0.9-5.3-1.3-8.1-1.3-3.1 0-6.1 0.6-9 1.7-4.1 1.5-9.4 4-14.8 7.5 0.2-0.4 0.3-0.9 0.5-1.3 2.6-7.6 2.8-16 0.6-25.2-2.1-8.3-5.7-15.3-8.4-19.8-2.8-4.5-6.8-8-11.6-10-0.5-0.3-1.1-0.5-1.6-0.7-2.6-0.9-5.3-1.3-8.1-1.3-3.1 0-6.1 0.6-9 1.7-3.5 1.4-8.1 3.4-12.8 6.3 2-9.8 3.1-20.6 2.5-32.2-1.2-21.5-6.4-38.3-10.5-48.5-2.2-5.5-4.6-10.5-7.1-14.3-3-4.8-6.6-9.2-12.4-9.2-3.3 0-6.4 1.6-8.3 4.2-3.4 4.6-1.8 9.8-1.1 11.8 0.8 2.5 1.5 11.9 0 31.9h-0.9c-1.3 0-2.6 0.1-3.9 0.3 0.3-8.1-0.1-16.2-1.4-24.2-3.3-21.2-10.1-37.3-15.2-47.1-2.7-5.3-5.6-9.9-8.4-13.5-3.2-4.2-7-8.1-12.4-8.1-3.5 0-6.7 1.7-8.6 4.6-3.3 5-1 10.5-0.3 12.3 1 2.5 2.9 13 3.3 37 0.3 18-0.4 37.9-1.7 52-0.1 0.6-0.1 1.3-0.2 1.9l-5.9-5.4c-0.2-16-3.3-42.6-19.3-68.2-11-17.7-23.1-29.6-31.3-36.5-6-5.1-17.2-13.6-24.4-13.6-4.4 0-8.2 2.6-9.8 6.5-1.3 3.1-1.6 8 4 13.4 0.6 0.6 5.6 6 17.4 32.8 4.3 9.7 8.5 20.2 12.2 30-31.8-22.2-59.7-39.5-60.1-39.7-1.6-1-3.4-1.5-5.2-1.5-1 0-1.9 0.1-2.9 0.4-2.7 0.8-5 2.7-6.2 5.3-4.2 8.9 3.3 22.8 23.5 43.7 7.6 7.8 18.8 15.6 30.5 22.5-22.6-5.6-32.2-9.7-34.3-11.3-2-1.5-4.8-3.2-8.4-3.2-5 0-9.3 3.5-10.2 8.4-0.5 2.7-1.8 9.2 16.6 24.9 8.4 7.1 22.5 17.4 42.3 25.4 0.9 0.4 1.8 0.7 2.7 1-0.4 5.9 1.1 11.6 4.4 16.5l0.1 0.1c1.6 2.3 3.5 4.8 5.7 7.4-8.9 1.2-16.3 1.8-21.4 1.8-3 0-4.2-0.2-4.5-0.3-1.6-0.4-3.1-0.6-4.4-0.6-4.1 0-7.6 2-9.5 5.3-1.9 3.2-1.9 7.2 0.1 10.5 1.1 1.9 3.1 4.4 9.6 7.6 4 2 8.9 4 14.3 5.7 9.9 3.1 25.9 6.9 46.2 6.9h2.5c6.4-0.1 12.5-0.8 18.3-1.7-1.4 3.8-1.9 7.9-1.3 12 0.9 5.8 3.7 11.1 8 15 7 6.3 21.1 16.8 37.5 16.8 1.7 0 3.4-0.1 5-0.3 3.9-0.5 7.6-1.7 11-3.2l-0.1 0.2-0.1 0.1c-0.5 0.7-1.1 1.4-1.7 2.2v0.1c-0.3 0.4-0.5 0.7-0.8 1.1-1.2 1.7-2.4 3.4-3.5 5.2-2.5 3.8-3.8 8.2-4 12.8v0.1c0 1.4 0 2.8 0.2 4.2 0.9 6 3.8 11.5 8.2 15.5 7.2 6.5 21.8 17.4 38.7 17.4 1.8 0 3.5-0.1 5.2-0.4 8.3-1.2 16.5-5.2 23.9-11.8l76.9 84.7-3 74.1v0.4h-72v-53.5c0-9.4-3.7-18.3-10.4-24.9s-15.5-10.4-24.9-10.4c-19.4 0-35.2 15.8-35.2 35.2v53.6h-35.3v-87.8c0-9.4-3.7-18.3-10.4-24.9-6.7-6.7-15.5-10.4-24.9-10.4-19.4 0-35.2 15.8-35.2 35.2v87.9H123c-9.4 0-18.3 3.7-24.9 10.4S87 890.6 87 900c0 19.4 15.8 35.2 35.2 35.2h779.5c9.4 0 18.3-3.7 24.9-10.4 6.7-6.7 10.4-15.5 10.4-24.9 0-8.8-3.2-17.2-9.1-23.7zM389.7 690.8c-6.3 7.7-15 15.1-25.5 16.5-1.3 0.2-2.6 0.3-3.9 0.3-12.4 0-24.3-7.9-32-14.9-2.8-2.5-4.5-5.9-5-9.4-0.1-0.9-0.2-1.8-0.2-2.7 0.1-2.7 0.9-5.3 2.5-7.8 0.9-1.5 2-3.1 3.2-4.7 0.2-0.3 0.5-0.6 0.7-1 0.5-0.6 1-1.3 1.5-1.9 0.3-0.3 0.5-0.6 0.8-0.9 0.8-0.9 1.6-1.9 2.5-2.8 2-2.1 4.3-4.2 6.7-5.9l2.1-1.5c2.9-1.9 6.1-3.4 9.5-4.3l-14.9-16.4c-6.1 8.3-15.3 17-26.6 18.5-1.2 0.2-2.5 0.2-3.7 0.2-11.9 0-23.4-7.5-30.8-14.2-2.7-2.4-4.3-5.6-4.8-9-0.5-3.4 0.2-6.9 2.2-9.9 5.5-8.7 14.9-19.5 27-22.2 0.8-0.2 1.6-0.3 2.5-0.5 0.2 0 0.3 0 0.5-0.1l-2.1-2.3c-13.2 7.5-33.1 15.7-57.2 16.2h-2.4c-40.4 0-66.9-15.9-60.6-15.9 0.5 0 1.2 0.1 2.1 0.3 1.6 0.4 4 0.5 6.8 0.5 10.3 0 27.6-2.3 45.1-5.4-9.1-4.3-16.4-12.5-21.2-19.4-2.1-3.1-3-6.7-2.7-10.3 0.2-2.5 1.1-4.9 2.5-7-3.8-1.1-7.6-2.4-11.4-3.9-37-15-55.9-39.4-52.5-39.4 0.4 0 1.3 0.4 2.5 1.3 10.5 7.7 62.5 19.6 90.9 23.4 0.5 0.1 1 0.2 1.5 0.2 0.8-0.1 1.6-0.2 2.5-0.2l-6.5-7.1c-23.1-10-56.7-27.1-71.5-42.5-24.8-25.7-21.6-32.5-21.6-32.5s45 27.7 85.9 58.4c-1.6-3.4-3.2-7.2-4.5-11.6-8.7-27.3-29.3-76.5-38.7-85.6-1.9-1.8-2.1-2.7-1.1-2.7 4 0 28.1 14.8 47.2 45.4 16 25.8 18.1 52.6 17.7 67.4l27.2 24.6c-1.3-6.4-2.1-14.6-1.1-24.6 2.7-28.5 2.8-81.9-2.3-93.9-0.9-2-0.9-3-0.3-3 2.8 0 20.3 23.4 26.1 60.3 2.4 15.1 1.4 29-0.9 40.8 2.5-2.2 5-4.2 7.4-5.8 2.6-1.8 5.7-2.7 8.7-2.7 0.6 0 1.1 0 1.6 0.1 2.9 0.2 5.7 1.4 8.1 3.2 2.1-21.2 2.9-41.2 0.7-48.2-0.6-2-0.6-3-0.1-3 2.7 0 17.9 25.1 20 62.6 1.5 26.9-7.1 49.2-14.2 62.8l8.6 7.8c-0.2-3.8 0.2-7.7 1.5-11.4 0.3-0.8 0.6-1.6 0.9-2.3 5.1-11.3 17.4-18.4 27.1-22.2 1.8-0.7 3.6-1 5.4-1 1.7 0 3.3 0.3 4.8 0.8v0.1c3.2 1.1 6 3.3 7.9 6.4 5.7 9.4 11.4 23.9 7 36.5-3.7 10.5-13.5 17.7-22.6 22.1l20.3 18.4c0-3.2 0.5-6.4 1.6-9.5 4.3-12.7 17.7-20.6 28-24.5 1.8-0.7 3.6-1 5.4-1 1.7 0 3.3 0.3 4.8 0.8v0.1c3.2 1.1 6 3.3 7.9 6.4 5.7 9.4 11.4 23.9 7 36.5-3.5 10-12.5 17-21.3 21.5l49.1 44.5 0.8-18v-0.2l2.7-70v-0.1l4.9-125.4-0.3-0.2 0.3-0.3v-0.1l1-24.6v-0.3l0.1-2.2v-0.2l0.9-23.4-55.3-79c-5.3 7.8-12.8 15.5-22.6 17.8-2.2 0.5-4.4 0.8-6.6 0.8-10.9 0-21.7-5.8-29.1-11.3-2.9-2.1-4.8-5.1-5.6-8.4-0.3-1.2-0.5-2.5-0.4-3.8 0-2.2 0.6-4.4 1.6-6.4 4.7-9.2 13-20.8 24.7-24.8 0.8-0.3 1.6-0.5 2.4-0.7 2.2-0.5 4.4-0.8 6.5-0.8 0.9 0 1.9 0 2.8 0.1l-6-8.6c-11 4.4-26.9 8.9-45.5 8.9-5.5 0-11.2-0.4-17.2-1.3-40.3-6.2-64.5-26.3-59.8-26.3 0.5 0 1.3 0.2 2.4 0.7 6.6 2.8 25.9 4 46.6 4h1.6c-0.8-1.3-1.5-2.6-1.9-4-0.4-1.4-0.7-2.9-0.7-4.3 0-3.5 1.2-7.1 3.6-10 1.9-2.2 4-4.5 6.5-6.8-3.8 0.4-7.7 0.6-11.9 0.6-8.9 0-18.6-1-28.7-3.6-39-10-61-32.1-57-32.1 0.5 0 1.3 0.3 2.5 0.9 11.4 6.3 64.5 11.3 93.2 11.4 10.6 0 19.1 1.7 25.5 3.8l-20.8-29.8c-14.1-0.7-42-4.8-67.4-24.3-31.2-23.9-43.1-51.9-40.3-51.9 0.4 0 1.1 0.6 2.2 1.9 8.1 10.2 55 35.6 81.4 46.8 4.2 1.8 7.8 3.7 11.1 5.6-26.6-43.7-50-91.2-50-91.2s0.2-0.1 0.6-0.1c2.1 0 10.2 1.8 29.7 24.7 14.5 17 29 54.4 36.4 78.3l5.4 6.3c0.1-1.6 0.3-3.1 0.7-4.6 0-0.5 0-0.9-0.1-1.4-1-28.6-7.9-81.6-14.5-92.8-1.2-2-1.3-2.9-0.6-2.9 3.1 0 23.2 20.9 33.7 56.4 1.2 4 2.1 7.9 2.7 11.7 2.3-1.2 4.8-1.8 7.3-1.8 3.6 0 7.1 1.3 10 3.7 6.4 5.4 13.6 13.4 17.1 22.6 6.1-21.7 10.8-43 9.8-50.7-0.3-2-0.1-3 0.4-3 2.5 0 13.5 27.4 9.2 65.1-1.2 10.7-3.8 20.3-7.2 28.9 0.3-0.2 0.6-0.4 0.9-0.7 2.6-1.8 5.6-2.8 8.6-2.8h1.3c3.4 0.3 6.7 1.7 9.3 4.2 7.9 7.7 17.1 20.2 16.1 33.5-1 13.4-11.9 24.4-20.8 30.9-0.3 0.2-0.6 0.4-1 0.6l26.7 31.1c0.4-1.8 0.8-3.6 1.3-5.3 1.1-3.6 3.3-6.6 6.3-8.6 2.5-1.7 5.5-2.6 8.6-2.6 0.6 0 1.1 0 1.7 0.1 5 0.6 10.9 1.8 16.6 4l1.6-42c-1.2 0.1-2.5 0.1-3.7 0.1-7.2 0-14.5-1.4-20.6-5.5-11.5-7.8-15.9-23.4-17.1-34.8-0.4-3.8 0.6-7.4 2.6-10.3 0.5-0.7 1.1-1.4 1.7-2 0.9-1 2-1.8 3.1-2.5 0.7-0.4 1.4-0.7 2.1-1 0.5-0.2 1.1-0.4 1.7-0.6 2.8-0.8 5.8-1.5 9.1-2 2.9-0.4 5.9-0.7 9-0.7 4.9 0 9.8 0.7 14.4 2.4l0.2-4.8-30.5-41.8c-14.4-9-38.9-28-53.3-59.9-18.3-40.2-15.7-74.5-12.9-74.5 0.5 0 1 1 1.4 3.1 2.7 14.7 36.6 66 57.3 91.6 10 12.4 14.8 23.5 17 31.8l22.1 24.7v-0.1l3.4-88c0.3-5.6 4.5-8.5 8.8-8.6h0.4c4.4 0 8.7 2.9 9 8.6l4.6 109 0.4 9.9v0.1l6.2-14.8 21.2-50.4h-0.4s0.6-1.5 2.1-3.9l27.4-65.1c1-2.4 2.4-3.4 3.6-3.4 0.7 0 1.2 0.3 1.7 0.8 0.8 0.9 1.1 2.5 0.4 4.8l-13.3 42.9c4.4-3 9.5-6.1 15.7-8.9 30-13.8 83.1-44.6 92.1-56.6 1.1-1.5 2-2.3 2.4-2.3 3.2 0-9.5 32.6-44.5 61.2-26.3 21.5-55.7 27.9-72.9 29.8l-33.5 107.5c2.5-0.5 5-0.9 7.3-1.2 0.5 0 1-0.1 1.5-0.1h0.3c3.2 0 6.2 1 8.6 2.7 2.9 2 5.2 5 6.2 8.6 3.1 11.1 4.8 27.2-3 38.7-5.7 8.3-15.4 12.8-24.7 15.2l2.8 66.2v0.1l1.1 24.5 42-49.1c-9.4-5.5-19.7-14.3-22.5-26.1-3.2-13.6 4.2-28 11-37.2 2.2-3 5.3-5 8.8-5.8 1.2-0.3 2.4-0.4 3.6-0.4h0.4c2.3 0 4.5 0.6 6.6 1.7 9.6 4.9 21.7 13.5 25.8 25.8 0.2 0.7 0.4 1.3 0.6 2l15.8-18.4c-9.3-5.2-20.1-13.9-22.8-25.8-3.1-13 4-26.8 10.6-35.7 2.2-2.9 5.1-4.8 8.4-5.6 1.1-0.3 2.2-0.4 3.4-0.4h0.5c2.2 0 4.4 0.6 6.4 1.6 9.2 4.7 20.8 13.1 24.7 24.8 0.3 0.8 0.5 1.6 0.7 2.4 0.1 0.4 0.2 0.9 0.3 1.3l2.3-2.7c-8.8-12.4-19-31.5-21.8-55.7-4.3-37.7 6.7-65.1 9.2-65.1 0.5 0 0.7 1 0.4 3-1 7.7 3.6 29 9.8 50.7 3.5-9.2 10.8-17.2 17.1-22.6 2.9-2.4 6.4-3.7 10-3.7 2.5 0 5 0.6 7.2 1.8 0.7-3.8 1.6-7.8 2.8-11.7 10.5-35.6 30.6-56.4 33.7-56.4 0.7 0 0.5 1-0.6 2.9-6.6 11.2-13.5 64.2-14.5 92.8 0 0.5-0.1 0.9-0.1 1.4 0 0.1 0 0.2 0.1 0.3l3.9-4.6c1.3-1.6 2.7-2.6 3.9-3.2 7.8-23.8 21.2-56.8 34.6-72.5 19.5-22.8 27.6-24.7 29.7-24.7 0.4 0 0.6 0.1 0.6 0.1s-23.4 47.5-50 91.2c3.2-1.9 6.9-3.8 11.1-5.6 26.4-11.2 73.3-36.6 81.4-46.8 1-1.3 1.8-1.9 2.2-1.9 2.8 0-9.1 28-40.3 51.9-25.8 19.8-54.4 23.7-68.2 24.3-2.4 3.7-4.9 7.3-7.3 10.7-0.3 0.4-0.4 0.5-0.6 0.5-0.3 0-0.3-0.7-0.1-2.1l-7.4 10.5c-2.7 5.9-5.5 9.4-6.6 10.7 6.6-2.4 15.7-4.5 27.4-4.5 28.7-0.1 81.8-5.1 93.2-11.4 1.2-0.6 2-0.9 2.5-0.9 4.1 0-18 22.1-57 32.1-10.1 2.6-19.7 3.6-28.7 3.6-4.1 0-8.1-0.2-11.9-0.6 2.4 2.2 4.6 4.6 6.5 6.8 0.6 0.7 1.1 1.5 1.6 2.3l0.6 1.2c0.4 0.8 0.7 1.7 0.9 2.5 0.3 1.3 0.5 2.6 0.5 3.9 0 2.9-0.9 5.8-2.5 8.3h1.8c20.6 0 39.7-1.1 46.3-3.9 1.1-0.5 2-0.7 2.4-0.7 4.6 0-19.6 20.1-59.8 26.3-5.9 0.9-11.6 1.3-17 1.3-19.7 0-36.4-5.1-47.5-9.6l-6.8 9.7c1.8-0.3 3.6-0.4 5.4-0.4 2.2 0 4.4 0.2 6.6 0.8 13 3.1 22.1 15.7 27.1 25.5 1.1 2 1.6 4.2 1.6 6.4 0 1.3-0.1 2.6-0.4 3.8-0.8 3.3-2.7 6.3-5.6 8.4-7.4 5.5-18.2 11.3-29.1 11.3-2.2 0-4.4-0.2-6.6-0.8-10.5-2.5-18.4-11.2-23.7-19.6l-14.8 21.1h1c2.2 0 4.4 0.2 6.6 0.8 0.8 0.2 1.6 0.4 2.4 0.7 11.7 4 20 15.5 24.7 24.8 1.1 2 1.6 4.2 1.6 6.4 0 1.3-0.1 2.6-0.4 3.8-0.8 3.3-2.7 6.3-5.6 8.4-7.4 5.5-18.2 11.3-29.1 11.3-2.2 0-4.4-0.2-6.6-0.8-9.2-2.2-16.5-9.2-21.7-16.5l-49.9 71.2 5.4 129.6 0.1-0.1 17.3-14.1 0.1-0.1 7.5-6.1 0.1-0.1 20.3-16.6 12-9.8c-7.2-6.5-13.7-15.2-14.8-25.3-1.4-13.9 7.8-27.2 15.8-35.4 2.6-2.7 6-4.3 9.5-4.6h0.1v-0.1c0.5-0.1 1.1-0.1 1.6-0.1 3 0 6 0.9 8.7 2.7 8.5 6 19 15.8 21.9 27.9l17.1-14c-8.1-6.4-16.6-16-17.8-27.5-1.4-13.3 7.5-26.1 15.1-34 2.5-2.6 5.8-4.1 9.2-4.5 0.5 0 0.9-0.1 1.4-0.1 3 0 5.9 0.8 8.5 2.6 3.1 2.2 6.5 4.9 9.7 8 5.7 5.7 10.6 12.8 11.9 21.1 0.1 0.4 0.1 0.8 0.2 1.2 0.1 0.7 0.1 1.3 0.1 2l2.8-2.3c-7.2-13.5-15.2-34.1-14.7-58.8 0.8-37.7 15-63.3 17.7-63.3 0.5 0 0.6 1 0 3-2 7.5-0.2 29.5 3.1 51.9 4.7-8.9 13-15.9 20.1-20.4 2.6-1.6 5.4-2.4 8.3-2.4 0.7 0 1.3 0 2 0.1v-0.1c2.5 0.3 4.9 1.3 7 2.8 1.2-3.8 2.6-7.5 4.3-11.4 14.9-33.5 37.2-51.6 40.7-51.6 0.8 0 0.6 0.9-0.9 2.9-8 10.3-21.8 61.8-26.5 90.1-0.1 0.5-0.2 1-0.3 1.6 0.2 1.7 0.2 3.4 0 5.1 0 0.3-0.1 0.6-0.1 0.9l5-4c10.2-22.5 30.3-60.2 47.6-75.7 20.6-18.5 29.2-20.6 32.1-20.6 0.8 0 1.2 0.2 1.2 0.2s-29.3 43.9-61.4 83.8c3.4-1.5 7.3-2.9 11.6-4.1 27.6-7.7 77.5-26.7 86.8-35.7 1.1-1.1 1.9-1.6 2.3-1.6 3.1 0-12.4 26.4-46.6 46.2-22.2 12.8-44.8 15.6-60.1 15.6-2.5 0-4.7-0.1-6.8-0.2L746 501.5c3.7-0.6 8-1.1 12.8-1.1 3.6 0 7.6 0.2 11.8 0.8 16.5 2.1 41.3 3.7 61.7 3.7 14.8 0 27.1-0.8 32.2-2.8 1.1-0.4 1.9-0.6 2.4-0.6 4.9 0-20 19.5-60.6 24.5-4.6 0.6-9.1 0.8-13.4 0.8-9.8 0-18.9-1.3-27-3.1 2.1 2.5 3.9 5 5.4 7.4 2 3.2 2.8 6.9 2.3 10.4-0.3 2.9-1.6 5.7-3.6 8 14.5 1.9 28.5 3.2 38.1 3.2 4.4 0 7.8-0.3 10.1-0.9 1-0.3 1.7-0.4 2.2-0.4 5.8 0-21.1 17.4-62.5 18.2h-2.2c-26.7 0-48.3-9.6-61.2-17.1l-9.2 9.2c0.9-0.1 1.9-0.1 2.8-0.1 3.7 0 7.3 0.6 10.8 1.9 12.5 4.7 19.9 18.4 23.5 28.8 1.1 3.4 1 7-0.2 10.2-1.2 3.2-3.5 6-6.7 7.7-7 3.8-16.6 7.6-26 7.6-3.7 0-7.3-0.6-10.8-1.9-11.2-4.3-18.3-15.7-22.3-25.5l-22.1 22c0.9-0.1 1.8-0.1 2.8-0.1 3.6 0 7.3 0.6 10.8 1.9 12.5 4.8 19.9 18.4 23.5 28.8 1.1 3.4 1 7-0.2 10.2-1.2 3.2-3.5 6-6.7 7.7-7 3.8-16.6 7.6-26 7.6-3.7 0-7.3-0.6-10.8-1.9-11.2-4.3-18.3-15.7-22.2-25.4l-61.4 61 3.6 87.1 3.4 75.2h-77l3.2-78.1v-0.1l-87.6-95.5z m43.6-489.4c0-0.2-0.1-0.4-0.1-0.6 9.8 9.9 19.5 17 26.7 21.7l19.6 26.8c-2.3 0.1-4.7 0.4-7.1 0.7-3.4 0.5-6.9 1.3-10.3 2.2-0.9 0.3-1.8 0.6-2.9 1-1.2 0.5-2.4 1.1-3.4 1.7-1.9 1.1-3.6 2.5-5.1 4.1-1 1-1.9 2.2-2.7 3.4-1.5 2.1-2.6 4.5-3.3 6.9-3.4-3.2-7.7-5.4-12.3-6.3 1.2-4.9 2-9.8 2.6-14.8 2.2-20 0.3-36.5-1.7-46.8z m29.1 118.1c0.9 0.7 1.8 1.4 2.7 2 5.6 3.7 12.1 6 19.5 6.9l-0.7 19.2c-1.9-0.4-3.9-0.7-5.8-0.9h-0.1c-0.9-0.1-1.9-0.2-2.8-0.2-5 0-9.9 1.5-14.1 4.3-1.7 1.1-3.2 2.4-4.6 3.9l-9.9-11.5c6.1-5.8 12.7-13.8 15.8-23.7z m80.7 66.7c2.6 11.1 9.8 19.6 17.4 25.7l-18.3 21.4-2.4-57.9c0.8-0.3 1.6-0.6 2.3-0.9-0.2 3.8 0 7.7 1 11.7z m132.6 94.1c-3-1.2-6.2-1.8-9.4-1.8-0.8 0-1.5 0-2.3 0.1h-0.3c-5.8 0.7-11.2 3.4-15.2 7.5-7.5 7.8-19.8 23.6-17.8 42 0.4 3.9 1.4 7.5 2.8 10.8-2.4-2.2-5.1-4.3-8.2-6.5l-0.1-0.1c-4.3-2.9-9.2-4.4-14.3-4.4-0.9 0-1.9 0.1-2.8 0.2-0.5 0.1-0.9 0.1-1.4 0.3-5.4 0.8-10.4 3.4-14.2 7.4-7.8 8-20.5 24.2-18.6 43.4 0.8 8 4.3 15.9 10.1 23.3l-3.7 3-20.3 16.7c-0.1 0.1-0.3 0.2-0.4 0.3l-7.2 5.8c-0.1 0.1-0.3 0.2-0.4 0.4l-1.6 1.3-4.4-106.3 40.7-58.1c5.7 5.1 11.9 8.6 18.5 10.2 2.9 0.7 5.9 1 8.9 1 15 0 28.3-8.3 35-13.2 4.4-3.2 7.6-7.8 9.1-13.1 0.1-0.3 0.2-0.7 0.3-1 0.5-2.1 0.7-4.2 0.7-6.3-0.1-3.8-1-7.5-2.7-10.8-1.9-3.8-4.9-8.9-9-13.9 0.6 0.2 1.1 0.3 1.7 0.4 2.9 0.7 5.9 1 8.9 1 9.6 0 18.6-3.4 25.5-7.2 0 0.1-0.1 0.2-0.1 0.3-3.7 10.4-8.3 27.4-8.7 49-0.2 6.5 0.2 12.6 0.9 18.3z m39.8 296.5c0-13.9 11.3-25.2 25.2-25.2 6.7 0 13.1 2.6 17.9 7.4 4.8 4.8 7.4 11.1 7.4 17.9v87.8h-50.5v-87.9z m-384.6 34.3c0-13.9 11.3-25.2 25.2-25.2 6.7 0 13.1 2.6 17.9 7.4 4.8 4.8 7.4 11.1 7.4 17.9v53.5h-50.5v-53.6z m-105.8-34.3c0-13.9 11.3-25.2 25.2-25.2 6.7 0 13.1 2.6 17.9 7.4s7.4 11.1 7.4 17.9v87.8h-50.5v-87.9z m694.5 141c-4.8 4.8-11.1 7.4-17.9 7.4H122.2c-13.9 0-25.2-11.3-25.2-25.2 0-6.7 2.6-13.1 7.4-17.9 4.8-4.8 11.1-7.4 17.9-7.4h779.5c2.4 0 4.8 0.3 7.2 1 0.5 0.2 1 0.3 1.5 0.5 0.8 0.3 1.5 0.6 2.3 1 0.4 0.2 0.7 0.4 1.1 0.6 1.8 1 3.4 2.1 4.9 3.5 0.6 0.5 1.2 1.1 1.7 1.7 4.2 4.6 6.5 10.7 6.5 17 0 6.6-2.6 13-7.4 17.8z" fill="#005E5E" p-id="5853"></path></svg>